<svg width="173" height="77" viewBox="0 0 173 77" fill="none" xmlns="http://www.w3.org/2000/svg">
<g filter="url(#filter0_i_227_212)">
<rect width="70" height="70" rx="6" fill="#141414"/>
</g>
<path d="M9.85063 47.96V20.12H11.4106L30.8506 39.04V20.12H32.3306V47.96H9.85063ZM49.34 34.08L38.66 20.16H40.58L50.3 32.84L60.06 20.16H61.94L51.26 34.08L61.94 48H60.06L50.3 35.32L40.58 48H38.66L49.34 34.08Z" fill="white"/>
<g filter="url(#filter1_d_227_212)">
<path d="M78.502 47.3266C78.5186 46.6766 78.7103 45.9849 79.077 45.2516C79.4603 44.5182 79.9186 43.9766 80.452 43.6266C81.5853 44.2932 82.8853 44.9099 84.352 45.4766C85.8186 46.0266 87.4103 46.2932 89.127 46.2766C90.5603 46.2599 91.802 45.9182 92.852 45.2516C93.902 44.5682 94.427 43.6516 94.427 42.5016C94.427 40.7182 93.1353 39.4016 90.552 38.5516L85.752 36.7516C83.7686 36.0849 82.1853 35.1932 81.002 34.0766C79.8353 32.9432 79.252 31.4849 79.252 29.7016C79.252 27.4849 80.1103 25.6099 81.827 24.0766C83.5436 22.5432 85.977 21.7516 89.127 21.7016C90.8436 21.6849 92.5436 21.8932 94.227 22.3266C95.927 22.7432 97.3603 23.2266 98.527 23.7766C98.527 24.4932 98.3686 25.2016 98.052 25.9016C97.752 26.5849 97.3353 27.1349 96.802 27.5516C95.602 27.0016 94.2936 26.5599 92.877 26.2266C91.477 25.8932 90.1936 25.7349 89.027 25.7516C87.577 25.7682 86.4436 26.1016 85.627 26.7516C84.8103 27.4016 84.402 28.2349 84.402 29.2516C84.402 30.0849 84.7103 30.7182 85.327 31.1516C85.9603 31.5849 86.8686 32.0099 88.052 32.4266L92.677 34.2016C94.6603 34.8849 96.3186 35.8766 97.652 37.1766C99.002 38.4599 99.677 40.0599 99.677 41.9766C99.677 44.4432 98.7186 46.4349 96.802 47.9516C94.902 49.4516 92.3436 50.2182 89.127 50.2516C86.7436 50.2682 84.6436 49.9599 82.827 49.3266C81.0103 48.6932 79.5686 48.0266 78.502 47.3266ZM109.038 29.3516C109.038 28.8182 109.047 28.3349 109.063 27.9016C109.08 27.4516 109.088 26.9432 109.088 26.3766C108.772 26.3766 108.33 26.3849 107.763 26.4016C107.213 26.4182 106.78 26.4266 106.463 26.4266H101.138C101.072 26.0766 101.022 25.7266 100.988 25.3766C100.955 25.0266 100.938 24.7099 100.938 24.4266C100.938 24.1266 100.955 23.7932 100.988 23.4266C101.022 23.0599 101.072 22.7016 101.138 22.3516H121.713C121.797 22.6349 121.863 22.9599 121.913 23.3266C121.963 23.6766 121.988 23.9766 121.988 24.2266C121.988 24.9432 121.797 25.4932 121.413 25.8766C121.047 26.2432 120.355 26.4266 119.338 26.4266H116.488C116.188 26.4266 115.755 26.4182 115.188 26.4016C114.638 26.3849 114.213 26.3766 113.913 26.3766C113.913 26.9432 113.922 27.4516 113.938 27.9016C113.955 28.3349 113.963 28.8182 113.963 29.3516V49.6016C113.647 49.6682 113.255 49.7182 112.788 49.7516C112.322 49.7849 111.897 49.8016 111.513 49.8016C111.147 49.8016 110.73 49.7849 110.263 49.7516C109.797 49.7182 109.388 49.6682 109.038 49.6016V29.3516ZM145.467 45.5266C145.467 47.0766 145.225 48.1516 144.742 48.7516C144.258 49.3349 143.45 49.6266 142.317 49.6266H129.342C128.475 49.6266 127.783 49.3682 127.267 48.8516C126.75 48.3182 126.492 47.5932 126.492 46.6766V22.6266L126.767 22.3516H144.667C144.733 22.7016 144.775 23.0432 144.792 23.3766C144.808 23.7099 144.817 24.0182 144.817 24.3016C144.817 24.5682 144.783 24.8932 144.717 25.2766C144.667 25.6599 144.575 26.0432 144.442 26.4266H134.167C133.833 26.4266 133.408 26.4266 132.892 26.4266C132.375 26.4099 131.85 26.4016 131.317 26.4016C131.317 26.7682 131.325 27.1599 131.342 27.5766C131.358 27.9932 131.367 28.4516 131.367 28.9516V33.8016C131.883 33.7849 132.392 33.7766 132.892 33.7766C133.408 33.7766 133.833 33.7766 134.167 33.7766H142.192C142.308 34.0932 142.375 34.4432 142.392 34.8266C142.425 35.1932 142.442 35.5016 142.442 35.7516C142.442 36.0349 142.425 36.3682 142.392 36.7516C142.375 37.1182 142.308 37.4599 142.192 37.7766H134.167C133.833 37.7766 133.408 37.7766 132.892 37.7766C132.392 37.7599 131.883 37.7516 131.367 37.7516V43.4766C131.367 43.8766 131.358 44.2599 131.342 44.6266C131.325 44.9932 131.317 45.3266 131.317 45.6266C131.75 45.5932 132.192 45.5682 132.642 45.5516C133.108 45.5349 133.658 45.5266 134.292 45.5266H145.467ZM171.656 31.1016C171.656 34.0682 170.681 36.2932 168.731 37.7766C166.798 39.2432 164.315 39.9766 161.281 39.9766H156.856V49.6016C156.49 49.6682 156.081 49.7182 155.631 49.7516C155.198 49.7849 154.79 49.8016 154.406 49.8016C154.056 49.8016 153.648 49.7849 153.181 49.7516C152.715 49.7182 152.298 49.6682 151.931 49.6016V22.6016L152.206 22.3516C153.723 22.3182 155.223 22.2849 156.706 22.2516C158.206 22.2016 159.731 22.1766 161.281 22.1766C163.281 22.1766 165.056 22.4932 166.606 23.1266C168.173 23.7599 169.406 24.7349 170.306 26.0516C171.206 27.3682 171.656 29.0516 171.656 31.1016ZM156.856 25.9766V36.1766C157.64 36.1599 158.44 36.1516 159.256 36.1516C160.073 36.1516 160.69 36.1516 161.106 36.1516C162.59 36.1516 163.723 35.8849 164.506 35.3516C165.29 34.8182 165.823 34.1599 166.106 33.3766C166.39 32.5932 166.531 31.8266 166.531 31.0766C166.531 30.3099 166.39 29.5432 166.106 28.7766C165.823 27.9932 165.29 27.3432 164.506 26.8266C163.723 26.2932 162.59 26.0266 161.106 26.0266C160.473 26.0266 159.79 26.0266 159.056 26.0266C158.34 26.0099 157.606 25.9932 156.856 25.9766Z" fill="#2D2D2D"/>
</g>
<defs>
<filter id="filter0_i_227_212" x="0" y="0" width="73" height="74" filterUnits="userSpaceOnUse" color-interpolation-filters="sRGB">
<feFlood flood-opacity="0" result="BackgroundImageFix"/>
<feBlend mode="normal" in="SourceGraphic" in2="BackgroundImageFix" result="shape"/>
<feColorMatrix in="SourceAlpha" type="matrix" values="0 0 0 0 0 0 0 0 0 0 0 0 0 0 0 0 0 0 127 0" result="hardAlpha"/>
<feOffset dx="3" dy="4"/>
<feGaussianBlur stdDeviation="2"/>
<feComposite in2="hardAlpha" operator="arithmetic" k2="-1" k3="1"/>
<feColorMatrix type="matrix" values="0 0 0 0 0.895833 0 0 0 0 0.895833 0 0 0 0 0.895833 0 0 0 0.25 0"/>
<feBlend mode="normal" in2="shape" result="effect1_innerShadow_227_212"/>
</filter>
<filter id="filter1_d_227_212" x="78.502" y="21.6765" width="93.1543" height="29.6001" filterUnits="userSpaceOnUse" color-interpolation-filters="sRGB">
<feFlood flood-opacity="0" result="BackgroundImageFix"/>
<feColorMatrix in="SourceAlpha" type="matrix" values="0 0 0 0 0 0 0 0 0 0 0 0 0 0 0 0 0 0 127 0" result="hardAlpha"/>
<feOffset dy="1"/>
<feComposite in2="hardAlpha" operator="out"/>
<feColorMatrix type="matrix" values="0 0 0 0 0.808333 0 0 0 0 0.808333 0 0 0 0 0.808333 0 0 0 0.25 0"/>
<feBlend mode="normal" in2="BackgroundImageFix" result="effect1_dropShadow_227_212"/>
<feBlend mode="normal" in="SourceGraphic" in2="effect1_dropShadow_227_212" result="shape"/>
</filter>
</defs>
</svg>
